<svg width="63" height="14" viewBox="0 0 63 14" fill="none" xmlns="http://www.w3.org/2000/svg">
<path d="M0.380127 14.0001L4.56013 0.320068H8.41713L12.5971 14.0001H9.93713L6.21313 1.93507H6.70713L3.04013 14.0001H0.380127ZM2.88813 11.1501V8.73707H10.1081V11.1501H2.88813Z" fill="white"/>
<path d="M17.3399 14.0001V0.320068H19.9239V14.0001H17.3399Z" fill="white"/>
<path d="M25.4319 8.14807V6.15307H31.1319V8.14807H25.4319Z" fill="white"/>
<path d="M35.3104 14.0001L39.9084 7.08407L35.4434 0.320068H38.6164L41.5234 4.88007L44.3924 0.320068H47.5844L43.1194 7.08407L47.6984 14.0001H44.5254L41.5234 9.28807L38.5024 14.0001H35.3104Z" fill="white"/>
<path d="M52.0661 14.0001V0.320068H57.8421C57.9751 0.320068 58.1524 0.326402 58.3741 0.339068C58.6021 0.345402 58.8047 0.364402 58.9821 0.396069C59.7991 0.522735 60.4672 0.791901 60.9866 1.20357C61.5122 1.61523 61.8986 2.13457 62.1456 2.76157C62.3926 3.38224 62.5161 4.07574 62.5161 4.84207C62.5161 5.6084 62.3894 6.30507 62.1361 6.93207C61.8891 7.55274 61.5027 8.0689 60.9771 8.48057C60.4577 8.89223 59.7927 9.1614 58.9821 9.28807C58.8047 9.3134 58.6021 9.3324 58.3741 9.34507C58.1461 9.35774 57.9687 9.36407 57.8421 9.36407H54.6501V14.0001H52.0661ZM54.6501 6.95107H57.7281C57.8611 6.95107 58.0067 6.94474 58.1651 6.93207C58.3234 6.9194 58.4691 6.89407 58.6021 6.85607C58.9504 6.76107 59.2196 6.60274 59.4096 6.38107C59.5996 6.15307 59.7294 5.9029 59.7991 5.63057C59.8751 5.3519 59.9131 5.08907 59.9131 4.84207C59.9131 4.59507 59.8751 4.3354 59.7991 4.06307C59.7294 3.7844 59.5996 3.53424 59.4096 3.31257C59.2196 3.08457 58.9504 2.92307 58.6021 2.82807C58.4691 2.79007 58.3234 2.76474 58.1651 2.75207C58.0067 2.7394 57.8611 2.73307 57.7281 2.73307H54.6501V6.95107Z" fill="white"/>
</svg>
