<svg width="65" height="16" viewBox="0 0 65 16" fill="none" xmlns="http://www.w3.org/2000/svg">
<path fill-rule="evenodd" clip-rule="evenodd" d="M5.19015 0.820068H9.78723L14.2728 15.5001H10.5682L9.68856 12.6501H5.27702L4.4108 15.5001H0.70459L5.19015 0.820068ZM5.58096 11.6501H9.3799L8.94376 10.2371H6.01042L5.58096 11.6501ZM4.96526 10.2371L4.53579 11.6501H4.38819V10.2371H4.96526ZM6.31436 9.23707H8.6351L7.46578 5.44872L6.31436 9.23707ZM6.93917 3.7426L5.26919 9.23707H3.66392L5.93023 1.82007H9.04715L11.3135 9.23707H9.68165L7.98502 3.74034L8.38174 2.43507H6.53558L6.93917 3.7426ZM9.99031 10.2371L10.4264 11.6501H10.6082V10.2371H9.99031ZM10.7351 12.6501L11.3061 14.5001H12.9216L11.6082 10.2017V12.6501H10.7351ZM3.38819 10.1395V12.6501H4.23186L3.66957 14.5001H2.05579L3.38819 10.1395ZM17.8399 0.820068H21.4239V15.5001H17.8399V0.820068ZM18.8399 1.82007V14.5001H20.4239V1.82007H18.8399ZM35.5143 0.820068H39.8907L42.5207 4.94558L45.1164 0.820068H49.5137L44.7189 8.08366L49.6292 15.5001H45.2512L42.5222 11.2165L39.7759 15.5001H35.3777L40.3087 8.08309L35.5143 0.820068ZM37.3727 1.82007L41.5083 8.08505L37.2433 14.5001H39.2291L42.5248 9.3596L45.7998 14.5001H47.7678L43.5201 8.08448L47.6553 1.82007H45.6686L42.5263 6.81456L39.3423 1.82007H37.3727ZM52.5661 0.820068H58.8421C58.9873 0.820068 59.1728 0.826833 59.3954 0.839472C59.6369 0.846464 59.8607 0.86684 60.0643 0.902833C60.943 1.03982 61.6956 1.33519 62.2962 1.81091C62.8919 2.27778 63.3316 2.86956 63.6107 3.57793C63.8839 4.2651 64.0161 5.02214 64.0161 5.84207C64.0161 6.66362 63.8802 7.42456 63.6002 8.11816C63.3207 8.81998 62.881 9.40749 62.2866 9.87331C61.6854 10.3494 60.9346 10.6453 60.0593 10.7821L60.0528 10.7831C59.858 10.8109 59.6406 10.831 59.4019 10.8443C59.1707 10.8571 58.9826 10.8641 58.8421 10.8641H56.1501V15.5001H52.5661V0.820068ZM63.1456 3.76157L63.6107 3.57793V3.57793L63.6102 3.57669L63.1456 3.76157ZM53.5661 1.82007V14.5001H55.1501V9.86407H58.8421C58.955 9.86407 59.1216 9.85833 59.3464 9.84584C59.5623 9.83385 59.7491 9.81617 59.9082 9.79355C60.6521 9.67688 61.2298 9.43489 61.6665 9.08874L61.6688 9.08692C62.1248 8.72982 62.4573 8.28571 62.6716 7.74719L62.6725 7.74476C62.8988 7.18468 63.0161 6.55271 63.0161 5.84207C63.0161 5.12983 62.9015 4.50028 62.6811 3.94645L62.6804 3.94483C62.4657 3.39987 62.1332 2.95345 61.6783 2.59722L61.676 2.5954C61.2394 2.24927 60.6579 2.00681 59.9055 1.89017L59.8942 1.88841C59.7467 1.86208 59.5696 1.84469 59.3602 1.83888L59.3529 1.83867L59.3456 1.83825C59.1281 1.82582 58.9614 1.82007 58.8421 1.82007H53.5661ZM55.1501 3.23307H58.7281C58.8767 3.23307 59.0359 3.24013 59.205 3.25366C59.3905 3.2685 59.5683 3.29864 59.7366 3.34648C60.1596 3.46233 60.5236 3.66964 60.7914 3.98974C61.0284 4.26698 61.1936 4.58364 61.2825 4.93513C61.3678 5.24281 61.4131 5.54571 61.4131 5.84207C61.4131 6.13913 61.3676 6.44528 61.2825 6.75851C61.1931 7.1053 61.0277 7.42039 60.7937 7.70116L60.7893 7.7065C60.5208 8.01972 60.1572 8.22248 59.7365 8.33767C59.5683 8.3855 59.3905 8.41564 59.205 8.43048C59.0359 8.44401 58.8767 8.45107 58.7281 8.45107H55.1501V3.23307ZM56.1501 4.23307V7.45107H58.7281C58.8456 7.45107 58.9777 7.44546 59.1253 7.43366C59.2553 7.42325 59.3679 7.40299 59.4648 7.37531L59.4706 7.37365C59.7436 7.29918 59.9169 7.18653 60.0279 7.05814C60.1717 6.88484 60.2648 6.70188 60.3147 6.50665L60.3167 6.49899C60.3829 6.25615 60.4131 6.03787 60.4131 5.84207C60.4131 5.6465 60.383 5.43223 60.3175 5.19747L60.3139 5.18438C60.2634 4.98229 60.1703 4.8017 60.03 4.63796L60.0255 4.63269C59.9141 4.49907 59.7418 4.38443 59.4706 4.31045L59.4648 4.30887C59.3679 4.28118 59.2553 4.26088 59.1253 4.25048C58.9777 4.23867 58.8456 4.23307 58.7281 4.23307H56.1501ZM25.932 6.65307H32.632V9.64807H25.932V6.65307ZM26.932 7.65307V8.64807H31.632V7.65307H26.932Z" fill="white"/>
</svg>
