<svg width="64" height="17" viewBox="0 0 64 17" fill="none" xmlns="http://www.w3.org/2000/svg">
<path d="M16.5662 7.41999V8.73999C16.5662 11.0427 15.8475 12.8833 14.4102 14.262C12.9875 15.626 11.1762 16.308 8.97616 16.308C6.58549 16.308 4.59816 15.538 3.01416 13.998C1.44482 12.458 0.660156 10.566 0.660156 8.32199C0.660156 6.07799 1.43749 4.17866 2.99216 2.62399C4.56149 1.06933 6.47549 0.291992 8.73416 0.291992C10.1715 0.291992 11.4842 0.614659 12.6722 1.25999C13.8748 1.90533 14.8062 2.75599 15.4662 3.81199L12.4742 5.52799C12.1368 4.99999 11.6308 4.56733 10.9562 4.22999C10.2962 3.89266 9.54816 3.72399 8.71216 3.72399C7.40682 3.72399 6.32149 4.15666 5.45616 5.02199C4.60549 5.88733 4.18016 6.99466 4.18016 8.34399C4.18016 9.67866 4.62016 10.7713 5.50016 11.622C6.38016 12.458 7.55349 12.876 9.02016 12.876C11.0588 12.876 12.3715 12.084 12.9582 10.5H8.84416V7.41999H16.5662Z" fill="white"/>
<path d="M24.3806 0.599992C25.8913 0.599992 27.1673 1.11333 28.2086 2.13999C29.25 3.16666 29.7706 4.41333 29.7706 5.87999C29.7706 7.34666 29.25 8.59333 28.2086 9.61999C27.1673 10.6467 25.8913 11.16 24.3806 11.16H22.0706V16H18.5506V0.599992H24.3806ZM24.3806 7.85999C24.9233 7.85999 25.3706 7.66933 25.7226 7.28799C26.0746 6.90666 26.2506 6.43733 26.2506 5.87999C26.2506 5.32266 26.0746 4.85333 25.7226 4.47199C25.3706 4.09066 24.9233 3.89999 24.3806 3.89999H22.0706V7.85999H24.3806Z" fill="white"/>
<path d="M41.6523 0.599992V3.98799H37.6923V16H34.1723V3.98799H30.2123V0.599992H41.6523Z" fill="white"/>
<path d="M42.0975 11.006V7.83799H50.4575V11.006H42.0975Z" fill="white"/>
<path d="M59.9395 6.84799C60.9222 7.18533 61.7142 7.73533 62.3155 8.49799C62.9168 9.24599 63.2175 10.1333 63.2175 11.16C63.2175 12.7733 62.6748 14.0347 61.5895 14.944C60.5042 15.8533 59.1768 16.308 57.6075 16.308C56.3902 16.308 55.2975 16.0293 54.3295 15.472C53.3762 14.9147 52.6722 14.0933 52.2175 13.008L55.2535 11.248C55.6348 12.3333 56.4195 12.876 57.6075 12.876C58.2968 12.876 58.8175 12.7147 59.1695 12.392C59.5215 12.0693 59.6975 11.6587 59.6975 11.16C59.6975 10.6613 59.5215 10.2507 59.1695 9.92799C58.8175 9.60533 58.2968 9.44399 57.6075 9.44399H56.8815L55.5395 7.44199L58.3335 3.89999H52.7015V0.599992H62.6015V3.45999L59.9395 6.84799Z" fill="white"/>
</svg>
