<svg width="57" height="13" viewBox="0 0 57 13" fill="none" xmlns="http://www.w3.org/2000/svg">
<path d="M0.773672 13L4.73367 0.0399995H8.38767L12.3477 13H9.82767L6.29967 1.57H6.76767L3.29367 13H0.773672ZM3.14967 10.3V8.014H9.98967V10.3H3.14967ZM15.9408 13V0.0399995H18.3888V13H15.9408ZM22.707 7.456V5.566H28.107V7.456H22.707ZM31.1655 13L35.5215 6.448L31.2915 0.0399995H34.2975L37.0515 4.36L39.7695 0.0399995H42.7935L38.5635 6.448L42.9015 13H39.8955L37.0515 8.536L34.1895 13H31.1655ZM46.1393 13V0.0399995H51.6113C51.7373 0.0399995 51.9053 0.0459994 52.1153 0.0579993C52.3313 0.0639995 52.5233 0.0819997 52.6913 0.112C53.4653 0.232 54.0983 0.486999 54.5903 0.876999C55.0883 1.267 55.4543 1.759 55.6883 2.353C55.9223 2.941 56.0393 3.598 56.0393 4.324C56.0393 5.05 55.9193 5.71 55.6793 6.304C55.4453 6.892 55.0793 7.381 54.5813 7.771C54.0893 8.161 53.4593 8.416 52.6913 8.536C52.5233 8.56 52.3313 8.578 52.1153 8.59C51.8993 8.602 51.7313 8.608 51.6113 8.608H48.5873V13H46.1393ZM48.5873 6.322H51.5033C51.6293 6.322 51.7673 6.316 51.9173 6.304C52.0673 6.292 52.2053 6.268 52.3313 6.232C52.6613 6.142 52.9163 5.992 53.0963 5.782C53.2763 5.566 53.3993 5.329 53.4653 5.071C53.5373 4.807 53.5733 4.558 53.5733 4.324C53.5733 4.09 53.5373 3.844 53.4653 3.586C53.3993 3.322 53.2763 3.085 53.0963 2.875C52.9163 2.659 52.6613 2.506 52.3313 2.416C52.2053 2.38 52.0673 2.356 51.9173 2.344C51.7673 2.332 51.6293 2.326 51.5033 2.326H48.5873V6.322Z" fill="white"/>
<path d="M0.773672 13L0.391131 12.8831L0.233193 13.4H0.773672V13ZM4.73367 0.0399995V-0.360001H4.43764L4.35113 -0.0768879L4.73367 0.0399995ZM8.38767 0.0399995L8.77021 -0.0768879L8.68371 -0.360001H8.38767V0.0399995ZM12.3477 13V13.4H12.8882L12.7302 12.8831L12.3477 13ZM9.82767 13L9.44546 13.118L9.53252 13.4H9.82767V13ZM6.29967 1.57V1.17H5.75759L5.91746 1.68797L6.29967 1.57ZM6.76767 1.57L7.15039 1.68632L7.30731 1.17H6.76767V1.57ZM3.29367 13V13.4H3.59016L3.67639 13.1163L3.29367 13ZM3.14967 10.3H2.74967V10.7H3.14967V10.3ZM3.14967 8.014V7.614H2.74967V8.014H3.14967ZM9.98967 8.014H10.3897V7.614H9.98967V8.014ZM9.98967 10.3V10.7H10.3897V10.3H9.98967ZM1.15621 13.1169L5.11621 0.156887L4.35113 -0.0768879L0.391131 12.8831L1.15621 13.1169ZM4.73367 0.439999H8.38767V-0.360001H4.73367V0.439999ZM8.00513 0.156887L11.9651 13.1169L12.7302 12.8831L8.77021 -0.0768879L8.00513 0.156887ZM12.3477 12.6H9.82767V13.4H12.3477V12.6ZM10.2099 12.882L6.68188 1.45203L5.91746 1.68797L9.44546 13.118L10.2099 12.882ZM6.29967 1.97H6.76767V1.17H6.29967V1.97ZM6.38496 1.45368L2.91096 12.8837L3.67639 13.1163L7.15039 1.68632L6.38496 1.45368ZM3.29367 12.6H0.773672V13.4H3.29367V12.6ZM3.54967 10.3V8.014H2.74967V10.3H3.54967ZM3.14967 8.414H9.98967V7.614H3.14967V8.414ZM9.58967 8.014V10.3H10.3897V8.014H9.58967ZM9.98967 9.9H3.14967V10.7H9.98967V9.9ZM15.9408 13H15.5408V13.4H15.9408V13ZM15.9408 0.0399995V-0.360001H15.5408V0.0399995H15.9408ZM18.3888 0.0399995H18.7888V-0.360001H18.3888V0.0399995ZM18.3888 13V13.4H18.7888V13H18.3888ZM16.3408 13V0.0399995H15.5408V13H16.3408ZM15.9408 0.439999H18.3888V-0.360001H15.9408V0.439999ZM17.9888 0.0399995V13H18.7888V0.0399995H17.9888ZM18.3888 12.6H15.9408V13.4H18.3888V12.6ZM22.707 7.456H22.307V7.856H22.707V7.456ZM22.707 5.566V5.166H22.307V5.566H22.707ZM28.107 5.566H28.507V5.166H28.107V5.566ZM28.107 7.456V7.856H28.507V7.456H28.107ZM23.107 7.456V5.566H22.307V7.456H23.107ZM22.707 5.966H28.107V5.166H22.707V5.966ZM27.707 5.566V7.456H28.507V5.566H27.707ZM28.107 7.056H22.707V7.856H28.107V7.056ZM31.1655 13L30.8324 12.7785L30.4193 13.4H31.1655V13ZM35.5215 6.448L35.8546 6.66946L36.0014 6.44879L35.8554 6.22764L35.5215 6.448ZM31.2915 0.0399995V-0.360001H30.5482L30.9577 0.260362L31.2915 0.0399995ZM34.2975 0.0399995L34.6348 -0.175023L34.5169 -0.360001H34.2975V0.0399995ZM37.0515 4.36L36.7143 4.57502L37.0538 5.10759L37.3901 4.57301L37.0515 4.36ZM39.7695 0.0399995V-0.360001H39.5486L39.431 -0.173014L39.7695 0.0399995ZM42.7935 0.0399995L43.1274 0.260362L43.5369 -0.360001H42.7935V0.0399995ZM38.5635 6.448L38.2297 6.22764L38.084 6.44833L38.23 6.66882L38.5635 6.448ZM42.9015 13V13.4H43.6461L43.2351 12.7792L42.9015 13ZM39.8955 13L39.5582 13.2149L39.6761 13.4H39.8955V13ZM37.0515 8.536L37.3889 8.32107L37.0526 7.79323L36.7148 8.32011L37.0515 8.536ZM34.1895 13V13.4H34.4082L34.5263 13.2159L34.1895 13ZM31.4986 13.2215L35.8546 6.66946L35.1884 6.22654L30.8324 12.7785L31.4986 13.2215ZM35.8554 6.22764L31.6254 -0.180364L30.9577 0.260362L35.1877 6.66836L35.8554 6.22764ZM31.2915 0.439999H34.2975V-0.360001H31.2915V0.439999ZM33.9603 0.255022L36.7143 4.57502L37.3888 4.14498L34.6348 -0.175023L33.9603 0.255022ZM37.3901 4.57301L40.1081 0.253013L39.431 -0.173014L36.713 4.14699L37.3901 4.57301ZM39.7695 0.439999H42.7935V-0.360001H39.7695V0.439999ZM42.4597 -0.180364L38.2297 6.22764L38.8974 6.66836L43.1274 0.260362L42.4597 -0.180364ZM38.23 6.66882L42.568 13.2208L43.2351 12.7792L38.8971 6.22718L38.23 6.66882ZM42.9015 12.6H39.8955V13.4H42.9015V12.6ZM40.2329 12.7851L37.3889 8.32107L36.7142 8.75093L39.5582 13.2149L40.2329 12.7851ZM36.7148 8.32011L33.8528 12.7841L34.5263 13.2159L37.3883 8.75189L36.7148 8.32011ZM34.1895 12.6H31.1655V13.4H34.1895V12.6ZM46.1393 13H45.7393V13.4H46.1393V13ZM46.1393 0.0399995V-0.360001H45.7393V0.0399995H46.1393ZM52.1153 0.0579993L52.0925 0.457519L52.1042 0.457845L52.1153 0.0579993ZM52.6913 0.112L52.621 0.505874L52.63 0.507277L52.6913 0.112ZM54.5903 0.876999L54.3418 1.19047L54.3437 1.19192L54.5903 0.876999ZM55.6883 2.353L55.3161 2.49961L55.3166 2.5009L55.6883 2.353ZM55.6793 6.304L55.3084 6.15415L55.3076 6.1561L55.6793 6.304ZM54.5813 7.771L54.3347 7.45607L54.3328 7.45754L54.5813 7.771ZM52.6913 8.536L52.7479 8.93201L52.753 8.9312L52.6913 8.536ZM52.1153 8.59L52.1375 8.98938L52.1375 8.98938L52.1153 8.59ZM48.5873 8.608V8.208H48.1873V8.608H48.5873ZM48.5873 13V13.4H48.9873V13H48.5873ZM48.5873 6.322H48.1873V6.722H48.5873V6.322ZM51.9173 6.304L51.9492 6.70273L51.9492 6.70273L51.9173 6.304ZM52.3313 6.232L52.226 5.84607L52.2214 5.84739L52.3313 6.232ZM53.0963 5.782L53.4 6.04234L53.4036 6.03807L53.0963 5.782ZM53.4653 5.071L53.0793 4.96574L53.0778 4.97187L53.4653 5.071ZM53.4653 3.586L53.0771 3.68305L53.08 3.69352L53.4653 3.586ZM53.0963 2.875L52.789 3.1311L52.7926 3.13532L53.0963 2.875ZM52.3313 2.416L52.2214 2.80064L52.226 2.80191L52.3313 2.416ZM51.9173 2.344L51.8854 2.74273L51.8854 2.74273L51.9173 2.344ZM48.5873 2.326V1.926H48.1873V2.326H48.5873ZM46.5393 13V0.0399995H45.7393V13H46.5393ZM46.1393 0.439999H51.6113V-0.360001H46.1393V0.439999ZM51.6113 0.439999C51.7263 0.439999 51.8858 0.445537 52.0925 0.457348L52.1381 -0.341349C51.9248 -0.353538 51.7482 -0.360001 51.6113 -0.360001V0.439999ZM52.1042 0.457845C52.3053 0.463431 52.4769 0.480039 52.621 0.505771L52.7616 -0.281771C52.5697 -0.316039 52.3573 -0.335432 52.1264 -0.341847L52.1042 0.457845ZM52.63 0.507277C53.3523 0.619261 53.916 0.852893 54.3418 1.19046L54.8388 0.563536C54.2806 0.121106 53.5783 -0.155262 52.7526 -0.283278L52.63 0.507277ZM54.3437 1.19192C54.785 1.53757 55.108 1.97124 55.3161 2.49961L56.0605 2.20639C55.8006 1.54676 55.3916 0.99643 54.8369 0.562077L54.3437 1.19192ZM55.3166 2.5009C55.5294 3.03544 55.6393 3.64127 55.6393 4.324H56.4393C56.4393 3.55473 56.3152 2.84656 56.0599 2.2051L55.3166 2.5009ZM55.6393 4.324C55.6393 5.00544 55.5268 5.61369 55.3084 6.15415L56.0502 6.45385C56.3118 5.80631 56.4393 5.09455 56.4393 4.324H55.6393ZM55.3076 6.1561C55.0998 6.67838 54.7769 7.10973 54.3347 7.45608L54.8279 8.08592C55.3817 7.65227 55.7908 7.10562 56.0509 6.4519L55.3076 6.1561ZM54.3328 7.45754C53.9064 7.79553 53.3454 8.02895 52.6295 8.14079L52.753 8.9312C53.5732 8.80305 54.2722 8.52647 54.8298 8.08446L54.3328 7.45754ZM52.6347 8.14002C52.4807 8.16202 52.3006 8.17909 52.0931 8.19062L52.1375 8.98938C52.362 8.97691 52.5659 8.95798 52.7479 8.93198L52.6347 8.14002ZM52.0931 8.19062C51.8797 8.20247 51.7203 8.208 51.6113 8.208V9.008C51.7423 9.008 51.9189 9.00153 52.1375 8.98938L52.0931 8.19062ZM51.6113 8.208H48.5873V9.008H51.6113V8.208ZM48.1873 8.608V13H48.9873V8.608H48.1873ZM48.5873 12.6H46.1393V13.4H48.5873V12.6ZM48.5873 6.722H51.5033V5.922H48.5873V6.722ZM51.5033 6.722C51.6417 6.722 51.7905 6.71542 51.9492 6.70273L51.8854 5.90527C51.744 5.91658 51.6168 5.922 51.5033 5.922V6.722ZM51.9492 6.70273C52.1218 6.68892 52.2863 6.66086 52.4412 6.61661L52.2214 5.84739C52.1243 5.87514 52.0128 5.89508 51.8854 5.90527L51.9492 6.70273ZM52.4365 6.61791C52.8254 6.51186 53.1567 6.32613 53.4 6.04232L52.7926 5.52168C52.6759 5.65787 52.4972 5.77214 52.226 5.84609L52.4365 6.61791ZM53.4036 6.03807C53.6195 5.77899 53.7713 5.48897 53.8528 5.17013L53.0778 4.97187C53.0273 5.16903 52.9331 5.35301 52.789 5.52593L53.4036 6.03807ZM53.8512 5.17625C53.931 4.88359 53.9733 4.59896 53.9733 4.324H53.1733C53.1733 4.51704 53.1436 4.73041 53.0794 4.96575L53.8512 5.17625ZM53.9733 4.324C53.9733 4.04885 53.931 3.76653 53.8506 3.47848L53.08 3.69352C53.1436 3.92147 53.1733 4.13115 53.1733 4.324H53.9733ZM53.8534 3.48899C53.772 3.16373 53.6197 2.87103 53.4 2.61468L52.7926 3.13532C52.9329 3.29897 53.0266 3.48027 53.0772 3.68301L53.8534 3.48899ZM53.4036 2.61893C53.1607 2.32742 52.8282 2.13691 52.4365 2.03009L52.226 2.80191C52.4944 2.87509 52.6719 2.99058 52.789 3.13107L53.4036 2.61893ZM52.4412 2.03139C52.2863 1.98714 52.1218 1.95908 51.9492 1.94527L51.8854 2.74273C52.0128 2.75292 52.1243 2.77286 52.2214 2.80061L52.4412 2.03139ZM51.9492 1.94527C51.7905 1.93258 51.6417 1.926 51.5033 1.926V2.726C51.6168 2.726 51.744 2.73142 51.8854 2.74273L51.9492 1.94527ZM51.5033 1.926H48.5873V2.726H51.5033V1.926ZM48.1873 2.326V6.322H48.9873V2.326H48.1873Z" fill="white"/>
</svg>
